<?xml version="1.0" standalone="no"?>
<!DOCTYPE svg PUBLIC "-//W3C//DTD SVG 20010904//EN"
 "http://www.w3.org/TR/2001/REC-SVG-20010904/DTD/svg10.dtd">
<svg version="1.0" xmlns="http://www.w3.org/2000/svg"
 width="241.000000pt" height="119.000000pt" viewBox="0 0 241.000000 119.000000"
 preserveAspectRatio="xMidYMid meet">
<metadata>
Created by potrace 1.15, written by Peter Selinger 2001-2017
</metadata>
<g transform="translate(0.000000,119.000000) scale(0.100000,-0.100000)"
fill="#000000" stroke="none">
<path d="M267 832 c-37 -196 -83 -438 -102 -537 -39 -201 -42 -241 -19 -273
l15 -22 983 0 c970 0 984 0 1009 20 31 25 45 66 96 290 65 286 69 321 33 363
-13 14 -33 17 -130 17 -90 0 -113 3 -109 13 3 7 11 48 17 90 l13 77 103 0 103
0 -10 -32 c-17 -59 -13 -68 29 -68 l39 0 11 64 c7 35 12 86 12 114 0 73 -16
82 -153 82 -136 0 -158 -10 -185 -82 -18 -49 -52 -207 -67 -319 -7 -46 4 -85
29 -101 6 -4 61 -8 122 -8 l111 0 -41 -180 -40 -180 -938 0 c-681 0 -938 3
-938 11 0 6 25 139 55 295 30 157 55 296 55 311 0 14 2 24 4 22 2 -2 25 -132
50 -289 26 -157 49 -295 52 -307 4 -21 10 -23 78 -23 68 0 74 2 79 23 10 40
187 966 187 977 0 7 -18 10 -47 8 l-48 -3 -37 -195 c-21 -107 -48 -253 -61
-325 -17 -91 -26 -122 -31 -105 -5 21 -106 617 -106 627 0 2 -35 3 -77 3 l-78
0 -68 -358z"/>
<path d="M866 1173 c-3 -10 -26 -126 -51 -258 -26 -132 -55 -285 -66 -340 -43
-225 -53 -311 -40 -343 19 -45 47 -52 202 -52 167 0 197 10 228 73 25 49 45
138 111 487 28 146 59 307 69 358 l18 92 -53 0 c-30 0 -54 -1 -54 -2 0 -2 -22
-115 -49 -253 -27 -137 -61 -319 -77 -402 l-28 -153 -128 0 c-70 0 -128 2
-128 4 0 2 7 37 15 77 8 41 33 171 55 289 23 118 50 259 61 314 26 133 28 126
-30 126 -39 0 -51 -4 -55 -17z"/>
<path d="M1376 1173 c-9 -30 -186 -959 -186 -977 0 -24 97 -23 103 2 3 9 20
94 37 189 l33 172 85 3 86 3 8 40 c4 22 10 50 13 63 5 21 3 22 -80 22 -47 0
-85 1 -85 3 0 1 14 77 30 167 17 90 30 168 30 172 0 4 53 8 119 8 l118 0 15
75 15 75 -168 0 c-151 0 -168 -2 -173 -17z"/>
<path d="M1641 697 c-51 -270 -94 -496 -95 -502 -1 -12 84 -19 95 -8 7 7 49
197 73 336 l7 37 83 0 c94 0 91 -2 102 80 l7 50 -82 0 c-44 0 -81 3 -81 8 0 4
14 82 32 175 l32 167 287 0 286 0 11 64 c7 35 12 68 12 75 0 8 -92 11 -337 11
l-338 0 -94 -493z"/>
</g>
</svg>
